<?xml version="1.0" encoding="UTF-8" standalone="no"?>
<!DOCTYPE svg PUBLIC "-//W3C//DTD SVG 1.1//EN"
 "http://www.w3.org/Graphics/SVG/1.1/DTD/svg11.dtd">
<!-- Generated by graphviz version 2.44.0 (0)
 -->
<!-- Title: Graphical Class Hierarchy Pages: 1 -->
<svg width="246pt" height="39pt"
 viewBox="0.00 0.00 246.00 39.00" xmlns="http://www.w3.org/2000/svg" xmlns:xlink="http://www.w3.org/1999/xlink">
<g id="graph0" class="graph" transform="scale(1 1) rotate(0) translate(4 35)">
<title>Graphical Class Hierarchy</title>
<polygon fill="white" stroke="transparent" points="-4,4 -4,-35 242,-35 242,4 -4,4"/>
<!-- Node1 -->
<g id="node1" class="node">
<title>Node1</title>
<g id="a_node1"><a xlink:href="classgr_1_1kvs__utils_1_1divide__by__2__ff__impl.html" target="_top" xlink:title=" ">
<polygon fill="white" stroke="black" points="0,-0.5 0,-30.5 101,-30.5 101,-0.5 0,-0.5"/>
<text text-anchor="start" x="8" y="-18.5" font-family="Helvetica" font-size="10.00">gr::kvs_utils::divide</text>
<text text-anchor="middle" x="50.5" y="-7.5" font-family="Helvetica" font-size="10.00">_by_2_ff_impl</text>
</a>
</g>
</g>
<!-- Node0 -->
<g id="node2" class="node">
<title>Node0</title>
<g id="a_node2"><a xlink:href="classgr_1_1kvs__utils_1_1divide__by__2__ff.html" target="_top" xlink:title="&lt;+description of block+&gt;">
<polygon fill="white" stroke="black" points="137,-0.5 137,-30.5 238,-30.5 238,-0.5 137,-0.5"/>
<text text-anchor="start" x="145" y="-18.5" font-family="Helvetica" font-size="10.00">gr::kvs_utils::divide</text>
<text text-anchor="middle" x="187.5" y="-7.5" font-family="Helvetica" font-size="10.00">_by_2_ff</text>
</a>
</g>
</g>
<!-- Node1&#45;&gt;Node0 -->
<g id="edge1" class="edge">
<title>Node1&#45;&gt;Node0</title>
<path fill="none" stroke="midnightblue" d="M111.21,-8.79C119.67,-8.7 128.3,-8.76 136.55,-8.96"/>
<polygon fill="midnightblue" stroke="midnightblue" points="110.94,-5.29 101,-8.97 111.06,-12.29 110.94,-5.29"/>
</g>
<!-- Node0&#45;&gt;Node1 -->
<g id="edge2" class="edge">
<title>Node0&#45;&gt;Node1</title>
<path fill="none" stroke="midnightblue" d="M126.34,-22.21C117.87,-22.3 109.24,-22.24 101,-22.03"/>
<polygon fill="midnightblue" stroke="midnightblue" points="126.61,-25.71 136.55,-22.04 126.49,-18.71 126.61,-25.71"/>
</g>
</g>
</svg>
